<svg xmlns="http://www.w3.org/2000/svg" width="256" height="54" viewBox="0 0 256 54" class="editor-view__logo-preview" data-v-8d8ae3dd="" data-v-b9d2a614=""><svg id="mark" viewBox="0 0 100 100" width="54" height="54" x="0" y="0" data-v-8d8ae3dd="" style="fill: rgb(0, 0, 0);"><rect x="0" y="0" width="100%" height="100%" fill="none" data-v-8d8ae3dd=""></rect><g data-v-8d8ae3dd=""><path xmlns="http://www.w3.org/2000/svg" d="M83.611,22.29H46.527c-8.471,0-15.363,6.892-15.363,15.363v19.309c0,8.471,6.892,15.363,15.363,15.363h25.716l12.1,13.824  l3.303,3.733c0.177,0.199,0.425,0.303,0.679,0.303c0.109,0,0.217-0.018,0.321-0.059c0.348-0.131,0.584-0.471,0.584-0.846V71.252  c5.851-2.303,9.743-7.964,9.743-14.291V37.653C98.974,29.182,92.082,22.29,83.611,22.29z M95.277,56.962  c0,4.765-2.864,9.005-7.295,10.802c-0.557,0.24-1.136,0.425-1.742,0.561c-0.412,0.091-0.706,0.457-0.706,0.882v12.689l-9.675-11.073  l-1.656-1.887c-0.172-0.195-0.421-0.308-0.679-0.308H46.527c-6.435,0-11.666-5.231-11.666-11.666V37.653  c0-6.43,5.231-11.666,11.666-11.666h37.084c6.43,0,11.666,5.236,11.666,11.666V56.962z"></path><path xmlns="http://www.w3.org/2000/svg" d="M28.499,45.468h-5.168c-0.258,0-0.507,0.109-0.679,0.308L21,47.663L14.466,55.5v-9.458c0-0.421-0.294-0.787-0.71-0.882  c-0.602-0.136-1.186-0.321-1.729-0.552c-4.444-1.806-7.304-6.046-7.304-10.806v-8.625c0-6.435,5.231-11.666,11.666-11.666h27.024  c4.405,0,8.397,2.482,10.389,6.382h4.039c-0.35-0.95-0.795-1.869-1.328-2.735c-2.824-4.598-7.72-7.344-13.1-7.344H16.389  c-8.471,0-15.363,6.892-15.363,15.363v8.625c0,6.326,3.887,11.987,9.743,14.286v14.888c0,0.376,0.231,0.715,0.584,0.846  c0.104,0.041,0.213,0.059,0.321,0.059c0.253,0,0.502-0.104,0.679-0.303l3.299-3.729c0.005-0.005,0.009-0.009,0.014-0.018  l8.955-10.67h3.878V45.468z"></path></g></svg><svg id="name" viewBox="0 0 186.875 43.84375" width="186" height="43.638461538461534" x="70" y="5.180769230769233" data-v-8d8ae3dd="" style="fill: rgb(0, 0, 0);"><rect x="0" y="0" width="100%" height="100%" fill="none" data-v-8d8ae3dd=""></rect><g data-v-8d8ae3dd=""><path xmlns="http://www.w3.org/2000/svg" d="M19.92 23.61L26.66 23.61Q26.28 28.88 22.76 31.92Q19.25 34.95 13.50 34.95L13.50 34.95Q7.21 34.95 3.60 30.72Q0 26.48 0 19.09L0 19.09L0 17.09Q0 12.38 1.66 8.78Q3.32 5.19 6.41 3.27Q9.50 1.35 13.59 1.35L13.59 1.35Q19.25 1.35 22.71 4.38Q26.17 7.41 26.71 12.89L26.71 12.89L19.97 12.89Q19.72 9.73 18.20 8.30Q16.69 6.87 13.59 6.87L13.59 6.87Q10.22 6.87 8.55 9.29Q6.87 11.70 6.83 16.78L6.83 16.78L6.83 19.25Q6.83 24.55 8.43 27.00Q10.04 29.45 13.50 29.45L13.50 29.45Q16.62 29.45 18.16 28.02Q19.70 26.59 19.92 23.61L19.92 23.61ZM36.99 0L36.99 12.85Q39.58 9.75 43.48 9.75L43.48 9.75Q51.39 9.75 51.50 18.93L51.50 18.93L51.50 34.50L45.01 34.50L45.01 19.11Q45.01 17.03 44.11 16.03Q43.21 15.03 41.13 15.03L41.13 15.03Q38.27 15.03 36.99 17.23L36.99 17.23L36.99 34.50L30.50 34.50L30.50 0L36.99 0ZM77.04 34.50L70.48 34.50Q70.03 33.62 69.83 32.32L69.83 32.32Q67.47 34.95 63.70 34.95L63.70 34.95Q60.13 34.95 57.78 32.88Q55.43 30.82 55.43 27.67L55.43 27.67Q55.43 23.81 58.30 21.74Q61.16 19.68 66.57 19.65L66.57 19.65L69.56 19.65L69.56 18.26Q69.56 16.58 68.70 15.57Q67.83 14.55 65.97 14.55L65.97 14.55Q64.33 14.55 63.40 15.34Q62.46 16.13 62.46 17.50L62.46 17.50L55.97 17.50Q55.97 15.39 57.28 13.59Q58.58 11.79 60.96 10.77Q63.34 9.75 66.30 9.75L66.30 9.75Q70.80 9.75 73.44 12.01Q76.08 14.26 76.08 18.35L76.08 18.35L76.08 28.88Q76.10 32.34 77.04 34.12L77.04 34.12L77.04 34.50ZM65.11 29.99L65.11 29.99Q66.55 29.99 67.76 29.35Q68.98 28.71 69.56 27.63L69.56 27.63L69.56 23.45L67.14 23.45Q62.26 23.45 61.95 26.82L61.95 26.82L61.92 27.20Q61.92 28.41 62.78 29.20Q63.63 29.99 65.11 29.99ZM82.34 4.22L88.83 4.22L88.83 10.20L92.99 10.20L92.99 14.96L88.83 14.96L88.83 27.09Q88.83 28.44 89.35 29.02Q89.87 29.60 91.33 29.60L91.33 29.60Q92.40 29.60 93.24 29.45L93.24 29.45L93.24 34.37Q91.33 34.95 89.30 34.95L89.30 34.95Q82.48 34.95 82.34 28.05L82.34 28.05L82.34 14.96L78.79 14.96L78.79 10.20L82.34 10.20L82.34 4.22ZM109.23 17.88L109.23 23.11L96.58 23.11L96.58 17.88L109.23 17.88ZM135.08 34.50L128.52 34.50Q128.07 33.62 127.87 32.32L127.87 32.32Q125.51 34.95 121.74 34.95L121.74 34.95Q118.17 34.95 115.82 32.88Q113.47 30.82 113.47 27.67L113.47 27.67Q113.47 23.81 116.34 21.74Q119.20 19.68 124.61 19.65L124.61 19.65L127.60 19.65L127.60 18.26Q127.60 16.58 126.74 15.57Q125.87 14.55 124.01 14.55L124.01 14.55Q122.37 14.55 121.44 15.34Q120.50 16.13 120.50 17.50L120.50 17.50L114.01 17.50Q114.01 15.39 115.31 13.59Q116.62 11.79 119.00 10.77Q121.38 9.75 124.34 9.75L124.34 9.75Q128.84 9.75 131.48 12.01Q134.11 14.26 134.11 18.35L134.11 18.35L134.11 28.88Q134.14 32.34 135.08 34.12L135.08 34.12L135.08 34.50ZM123.15 29.99L123.15 29.99Q124.59 29.99 125.80 29.35Q127.02 28.71 127.60 27.63L127.60 27.63L127.60 23.45L125.17 23.45Q120.30 23.45 119.99 26.82L119.99 26.82L119.96 27.20Q119.96 28.41 120.82 29.20Q121.67 29.99 123.15 29.99ZM160.98 22.24L160.98 22.57Q160.98 28.19 158.43 31.57Q155.88 34.95 151.54 34.95L151.54 34.95Q147.86 34.95 145.59 32.39L145.59 32.39L145.59 43.84L139.10 43.84L139.10 10.20L145.12 10.20L145.34 12.58Q147.70 9.75 151.50 9.75L151.50 9.75Q155.99 9.75 158.48 13.07Q160.98 16.40 160.98 22.24L160.98 22.24ZM154.49 22.10L154.49 22.10Q154.49 18.71 153.28 16.87Q152.08 15.03 149.79 15.03L149.79 15.03Q146.74 15.03 145.59 17.36L145.59 17.36L145.59 27.31Q146.78 29.72 149.84 29.72L149.84 29.72Q154.49 29.72 154.49 22.10ZM186.88 22.24L186.88 22.57Q186.88 28.19 184.33 31.57Q181.78 34.95 177.44 34.95L177.44 34.95Q173.76 34.95 171.49 32.39L171.49 32.39L171.49 43.84L165.00 43.84L165.00 10.20L171.02 10.20L171.24 12.58Q173.60 9.75 177.40 9.75L177.40 9.75Q181.89 9.75 184.38 13.07Q186.88 16.40 186.88 22.24L186.88 22.24ZM180.38 22.10L180.38 22.10Q180.38 18.71 179.18 16.87Q177.98 15.03 175.69 15.03L175.69 15.03Q172.63 15.03 171.49 17.36L171.49 17.36L171.49 27.31Q172.68 29.72 175.73 29.72L175.73 29.72Q180.38 29.72 180.38 22.10Z"></path></g></svg><!----></svg>